<svg version="1.1" xmlns="http://www.w3.org/2000/svg" viewBox="0 0 1151.804194970495 512.3866937202846" width="1151.804194970495" height="512.3866937202846" filter="invert(93%) hue-rotate(180deg)">
  <!-- svg-source:excalidraw -->
  
  <defs>
    <style class="style-fonts">
      @font-face {
        font-family: "Virgil";
        src: url("https://excalidraw.com/Virgil.woff2");
      }
      @font-face {
        font-family: "Cascadia";
        src: url("https://excalidraw.com/Cascadia.woff2");
      }
    </style>
  </defs>
  <g stroke-linecap="round"><g transform="translate(11.048144075635719 28.817479076682503) rotate(0 84.44388906620361 126.04753803368675)"><path d="M1.36 0.81 C-2.73 62.24, -0.44 123.04, -0.14 250.86 M0.72 0.43 C-0.3 51.15, 0.24 102.29, 0.46 251.66 M-0.78 251.25 C52 251.24, 98.97 250.63, 168 249.77 M0.14 250.8 C41.13 251.05, 81.38 251.38, 169.12 250.51 M169.94 250.91 C166.09 195.85, 169.37 141.23, 167.91 54.41 M168.36 250.55 C170.4 201.07, 170.33 152.09, 168.43 53.82" stroke="#000000" stroke-width="1" fill="none"></path></g></g><mask></mask><g stroke-linecap="round"><g transform="translate(119.70210955886068 11.915751112625003) rotate(0 30.42819198682662 34.55819218013164)"><path d="M1 -1.92 C1.68 17.6, 0.97 33.27, 0.9 66.91 M0.53 -0.19 C-0.5 20.63, -0.57 40.88, 1.88 68.79 M1.35 70.59 C23.18 68.45, 44.27 69.76, 60.23 70.05 M0.9 69.21 C17.72 69.27, 34.23 70.13, 60.97 71.03 M61.37 69.75 C38.86 46.71, 16.3 17.22, 0.09 -1 M61.01 71.03 C47.58 54.89, 34.22 38.9, -0.51 0.51" stroke="#000000" stroke-width="1" fill="none"></path></g></g><mask></mask><g stroke-linecap="round"><g transform="translate(118.49484327571395 14.330283678918931) rotate(0 -53.56081568963441 19.476706720626453)"><path d="M-1.92 0.78 C-39.9 1.24, -81.77 2.09, -106.93 2.27 M-0.19 -0.41 C-24.35 0.29, -49.1 2.38, -105.06 3.01 M-103.25 2.69 C-105.89 13.26, -104.7 23.43, -103.8 37.99 M-104.64 2.74 C-104.31 14.76, -103.32 25.2, -102.82 39.37" stroke="#000000" stroke-width="1" fill="none"></path></g></g><mask></mask><g stroke-linecap="round"><g transform="translate(210.2470807948814 156.7877050902589) rotate(0 132.2676824037759 1.4298508672347907)"><path d="M0.62 0.7 C101.16 2.8, 202.42 2.35, 264.28 1.41 M-0.33 0.38 C101.95 1.78, 205.76 2.25, 264.86 2.48" stroke="#000000" stroke-width="1" fill="none"></path></g><g transform="translate(210.2470807948814 156.7877050902589) rotate(0 132.2676824037759 1.4298508672347907)"><path d="M237.4 13.5 C247.17 8.84, 257.91 3.22, 264.72 1.21 M236.21 13.09 C246.69 9.3, 259.16 4.78, 265.46 2.57" stroke="#000000" stroke-width="1" fill="none"></path></g><g transform="translate(210.2470807948814 156.7877050902589) rotate(0 132.2676824037759 1.4298508672347907)"><path d="M237.5 -7.02 C247.33 -3.82, 258.04 -1.57, 264.72 1.21 M236.31 -7.43 C246.85 -3.26, 259.29 0.18, 265.46 2.57" stroke="#000000" stroke-width="1" fill="none"></path></g></g><mask></mask><g transform="translate(29.1571383228395 111.63429554119193) rotate(0 65.46666717529297 35)"><text x="65.46666717529297" y="0" font-family="Virgil, Segoe UI Emoji" font-size="28px" fill="#000000" text-anchor="middle" style="white-space: pre;" direction="ltr" dominant-baseline="text-before-edge">rock and </text><text x="65.46666717529297" y="35" font-family="Virgil, Segoe UI Emoji" font-size="28px" fill="#000000" text-anchor="middle" style="white-space: pre;" direction="ltr" dominant-baseline="text-before-edge">stone</text></g><g stroke-linecap="round"><g transform="translate(495.17537737942644 39.78715145147544) rotate(0 84.1207878753836 125.82287523359366)"><path d="M-0.14 -0.25 C-0.64 84.99, -0.13 171.64, 0.87 250.8 M0.46 0.55 C0.95 65.46, 1.04 129.64, 0.06 251.84 M-1.02 249.77 C51.83 250.75, 106.47 251.66, 168.4 251.9 M0.11 250.51 C56.01 250.74, 111.74 250.47, 168.91 250.37 M167.91 251.2 C166.25 192.55, 166.05 135.88, 167.9 53.93 M168.43 250.6 C170.05 209.48, 168.91 167.09, 168.33 54.3" stroke="#000000" stroke-width="1" fill="none"></path></g></g><mask></mask><g stroke-linecap="round"><g transform="translate(603.8293428626512 22.885423487418393) rotate(0 30.98108982244264 34.99037457922202)"><path d="M-0.31 -1.9 C0.2 22.43, 2.51 48.47, 0.83 67.99 M0.68 -0.03 C0.43 23.99, -0.13 47.89, 2.1 68.95 M-0.14 67.64 C14.26 70.12, 28.87 69.6, 62.36 71.88 M0.61 68.61 C19.43 68.77, 36.62 70.05, 60.83 71.12 M61.66 70.23 C35.9 41.93, 12.21 14.27, -0.39 -1.77 M61.06 71.73 C45.26 50.76, 27.7 31.24, -0.03 -0.11" stroke="#000000" stroke-width="1" fill="none"></path></g></g><mask></mask><g stroke-linecap="round"><g transform="translate(602.6220765795042 25.29995605371232) rotate(0 -53.1201110310069 19.694094406644354)"><path d="M-1.9 -0.14 C-31.58 2.3, -59.56 0.85, -105.86 3.36 M-0.03 0.59 C-22.57 0.84, -45.26 2.64, -104.9 1.68 M-106.21 1.78 C-104.08 12.96, -104.47 23.74, -101.97 38.42 M-105.23 3.15 C-104.79 16.12, -103.33 28.14, -102.72 39.53" stroke="#000000" stroke-width="1" fill="none"></path></g></g><mask></mask><g transform="translate(522.8254179967055 114.72959484723287) rotate(0 53.974998474121094 48.03710666878237)"><text x="53.974998474121094" y="0" font-family="Virgil, Segoe UI Emoji" font-size="19.21484266751296px" fill="#000000" text-anchor="middle" style="white-space: pre;" direction="ltr" dominant-baseline="text-before-edge">f0ee5e0</text><text x="53.974998474121094" y="24.0185533343912" font-family="Virgil, Segoe UI Emoji" font-size="19.21484266751296px" fill="#000000" text-anchor="middle" style="white-space: pre;" direction="ltr" dominant-baseline="text-before-edge">e30a17ec</text><text x="53.974998474121094" y="48.0371066687824" font-family="Virgil, Segoe UI Emoji" font-size="19.21484266751296px" fill="#000000" text-anchor="middle" style="white-space: pre;" direction="ltr" dominant-baseline="text-before-edge">356c5c10</text><text x="53.974998474121094" y="72.0556600031736" font-family="Virgil, Segoe UI Emoji" font-size="19.21484266751296px" fill="#000000" text-anchor="middle" style="white-space: pre;" direction="ltr" dominant-baseline="text-before-edge">c83b76837</text></g><g stroke-linecap="round"><g transform="translate(682.4853482888132 157.8703284576186) rotate(0 131.6265214762227 1.4999219761747327)"><path d="M-1.01 1.4 C76.08 0.53, 149.84 2.27, 263.06 3.31 M0.07 -0.31 C97.24 0.35, 194.48 -0.05, 264.26 2.01" stroke="#000000" stroke-width="1" fill="none"></path></g><g transform="translate(682.4853482888132 157.8703284576186) rotate(0 131.6265214762227 1.4999219761747327)"><path d="M234.61 13.51 C245.12 8.62, 251.3 7.17, 262.58 3.14 M235.97 11.36 C246.39 8.89, 256.88 3.69, 264.09 1.5" stroke="#000000" stroke-width="1" fill="none"></path></g><g transform="translate(682.4853482888132 157.8703284576186) rotate(0 131.6265214762227 1.4999219761747327)"><path d="M234.99 -7.01 C245.19 -6.06, 251.27 -1.66, 262.58 3.14 M236.35 -9.16 C246.62 -4.08, 256.98 -1.74, 264.09 1.5" stroke="#000000" stroke-width="1" fill="none"></path></g></g><mask></mask><g stroke-linecap="round"><g transform="translate(971.6086541933612 41.713125788583966) rotate(0 83.96137432911337 125.79310918537703)"><path d="M0.87 -0.31 C-1.97 74.35, -2.67 148.06, 1.1 251.06 M0.06 0.73 C0.29 89.66, 0.04 180.09, -0.55 250.63 M-0.62 251.9 C45.97 250.67, 91.94 251.09, 167.82 250.71 M-0.1 250.37 C62.99 251.23, 126.31 249.78, 169.06 250.61 M167.9 250.72 C168.44 207.3, 168.8 163.37, 168 55.34 M168.33 251.08 C170.15 191.78, 169.43 131.91, 168.06 54.11" stroke="#000000" stroke-width="1" fill="none"></path></g></g><mask></mask><g stroke-linecap="round"><g transform="translate(1080.2626196765862 24.811397824527376) rotate(0 30.580602806953266 35.93524773338538)"><path d="M-0.38 -0.82 C1.84 14.59, 2.3 33.9, 1.15 70 M0.89 0.14 C-0.63 21.07, -0.03 41.81, 0.62 68.5 M1.99 69.47 C20.48 71.09, 40.38 69.36, 61.17 72.7 M0.47 68.71 C16.13 69.54, 28.68 70.04, 61.07 70.43 M61.18 69.46 C46.74 52.41, 31.33 35.71, 1.01 0.05 M61.54 71.12 C47.68 53.1, 32.76 36.08, -0.22 -0.54" stroke="#000000" stroke-width="1" fill="none"></path></g></g><mask></mask><g stroke-linecap="round"><g transform="translate(1079.0553533934392 27.225930390821304) rotate(0 -52.6073648734166 18.649640597140888)"><path d="M-0.82 0.95 C-42.43 1.86, -80.16 1.62, -103.84 2.59 M0.14 -0.73 C-27.6 1.06, -55.54 1.61, -105.35 2.64 M-104.38 2.2 C-103.08 13.97, -104.83 24.71, -101.15 37.27 M-105.14 3.31 C-104.13 14.41, -103.36 26.99, -103.42 38.03" stroke="#000000" stroke-width="1" fill="none"></path></g></g><mask></mask><g transform="translate(989.7176484405647 124.5299422530934) rotate(0 65.46666717529297 35)"><text x="65.46666717529297" y="0" font-family="Virgil, Segoe UI Emoji" font-size="28px" fill="#000000" text-anchor="middle" style="white-space: pre;" direction="ltr" dominant-baseline="text-before-edge">rock and </text><text x="65.46666717529297" y="35" font-family="Virgil, Segoe UI Emoji" font-size="28px" fill="#000000" text-anchor="middle" style="white-space: pre;" direction="ltr" dominant-baseline="text-before-edge">stone</text></g><g stroke-linecap="round"><g transform="translate(274.7970080677678 158.82945936564965) rotate(0 93.26755768897146 158.16560908699023)"><path d="M-1.19 0.79 C-0.92 88.9, -1.98 177.98, -3.93 316.58 M-0.12 -0.36 C-1.49 122.68, -2.55 246.37, -3.29 316.26 M-2.08 316.69 C60.87 316.28, 128.98 315.33, 190.47 316.27 M-3.28 315.92 C40.23 314.25, 82.95 314.15, 188.89 315.92" stroke="#000000" stroke-width="1" fill="none"></path></g><g transform="translate(274.7970080677678 158.82945936564965) rotate(0 93.26755768897146 158.16560908699023)"><path d="M158.88 326.92 C169.92 322.83, 177.71 320.29, 188.12 316.06 M160.4 325.28 C170.9 321.57, 182.27 318.55, 189.03 315.61" stroke="#000000" stroke-width="1" fill="none"></path></g><g transform="translate(274.7970080677678 158.82945936564965) rotate(0 93.26755768897146 158.16560908699023)"><path d="M159.16 306.4 C170.03 308.08, 177.75 311.3, 188.12 316.06 M160.68 304.77 C171.1 309.03, 182.36 313.99, 189.03 315.61" stroke="#000000" stroke-width="1" fill="none"></path></g></g><mask></mask><g stroke-linecap="round" transform="translate(479.5774285451612 453.3070888124796) rotate(0 21.15500211543315 21.155002115433206)"><path d="M28.26 0.81 C32.42 2.03, 37.11 7.42, 39.43 11.26 C41.75 15.11, 42.94 19.63, 42.16 23.87 C41.39 28.1, 38.34 33.72, 34.77 36.7 C31.19 39.67, 25.28 41.55, 20.72 41.72 C16.16 41.89, 10.79 40.57, 7.42 37.74 C4.05 34.91, 1.22 29.19, 0.5 24.75 C-0.22 20.31, 0.93 14.9, 3.11 11.11 C5.29 7.32, 8.98 3.58, 13.59 2.01 C18.21 0.44, 27.63 1.22, 30.8 1.67 C33.97 2.13, 32.9 4.26, 32.61 4.75 M21.42 0.19 C25.75 -0.26, 29.81 1.84, 33.07 4.34 C36.34 6.85, 40.02 10.98, 41.02 15.22 C42.02 19.46, 41.17 25.61, 39.09 29.8 C37.01 33.99, 32.81 38.48, 28.56 40.34 C24.32 42.21, 17.99 42.41, 13.62 40.98 C9.25 39.55, 4.72 35.38, 2.35 31.77 C-0.02 28.16, -1.34 23.82, -0.6 19.31 C0.14 14.8, 3.51 8.11, 6.78 4.72 C10.05 1.34, 16.81 -0.26, 19.02 -1 C21.23 -1.74, 19.81 -0.03, 20.05 0.29" stroke="#000000" stroke-width="1" fill="none"></path></g><g stroke-linecap="round" transform="translate(523.5798329452623 466.846290166357) rotate(0 60.92640609244768 7.615800761555931)"><path d="M1.35 -0.06 C43.53 -0.51, 83.91 -0.55, 123.63 0.27 M-0.67 -0.59 C27.33 0.85, 55.44 0.31, 122.25 0.33 M120.94 -0.31 C123.07 3.37, 122.65 8.66, 120.72 15.07 M121.89 -0.38 C121.26 5.48, 121.37 11.44, 121.7 14.56 M120.83 16.24 C88.59 13.25, 53.82 13.14, -0.06 15.02 M120.9 15.01 C82.24 14.95, 43.46 15.55, 0.91 15.71 M-0.6 15.03 C-0.95 10.93, -0.77 4.24, 0.12 1.37 M0.37 14.55 C-0.64 11.18, 0.09 6.2, -0.76 -0.42" stroke="#000000" stroke-width="1" fill="none"></path></g><g stroke-linecap="round" transform="translate(623.4314429301071 482.07789168946874) rotate(0 11.000601100025278 10.154401015407927)"><path d="M-0.06 1.19 C4.92 -0.92, 9.64 1.63, 22.27 -1.46 M-0.59 -0.32 C6.46 0.28, 12.16 0.54, 22.33 -0.11 M21.6 1.47 C20.66 8.34, 21.82 13.35, 21.79 22.1 M21.5 -0.8 C21.29 5.66, 21.33 12.43, 21.12 20.04 M23.01 20.36 C15.68 18.79, 10.51 20.14, -0.21 20.72 M21.78 19.77 C17.08 19.86, 12.89 21, 0.48 21.12 M-0.27 19.19 C1.86 12.09, 0.71 5.81, 1.79 0.06 M-0.9 19.64 C0.63 12.82, 0.14 3.77, -0.55 0.18" stroke="#000000" stroke-width="1" fill="none"></path></g><g stroke-linecap="round" transform="translate(594.5062390377097 481.92349067406076) rotate(0 11.000601100025278 10.154401015407927)"><path d="M1.19 0.17 C7.06 0.15, 17.46 0.28, 20.54 -0.33 M-0.32 0.23 C5.61 -0.18, 11.35 0.46, 21.9 0.65 M23.47 -1.36 C22.8 6.1, 20.4 12.41, 23.79 20.52 M21.2 -0.6 C21.35 4.41, 21.81 9.04, 21.73 19.61 M22.05 19.05 C15.29 19.05, 11.34 20.21, 0.41 18.66 M21.46 20.18 C15.43 20.73, 10.25 20.74, 0.81 20.92 M-1.12 22.29 C-0.8 13.83, 0.24 7.49, 0.06 1.65 M-0.67 21.05 C0.18 13.36, -1.09 5.36, 0.18 -0.65" stroke="#000000" stroke-width="1" fill="none"></path></g><g stroke-linecap="round" transform="translate(489.73182956056894 463.46148982788736) rotate(0 11.000601100025165 10.15440101540787)"><path d="M9.02 -0.54 C11.15 -1.3, 14.22 -0.32, 16.15 0.75 C18.08 1.83, 19.77 3.75, 20.59 5.91 C21.41 8.06, 21.72 11.56, 21.09 13.67 C20.46 15.77, 18.72 17.4, 16.82 18.54 C14.92 19.68, 12.06 20.69, 9.69 20.51 C7.32 20.34, 4.2 19.28, 2.61 17.48 C1.01 15.69, 0.17 11.91, 0.11 9.75 C0.05 7.59, 0.55 6.06, 2.24 4.51 C3.92 2.96, 8.45 1.28, 10.2 0.46 C11.95 -0.36, 12.64 -0.64, 12.73 -0.39 M10.84 -1.19 C13.07 -1.38, 15.9 0.12, 17.61 1.76 C19.32 3.39, 20.87 6.38, 21.09 8.64 C21.3 10.89, 20.22 13.57, 18.89 15.3 C17.57 17.02, 15.31 18.16, 13.15 18.99 C10.99 19.81, 7.91 21.12, 5.92 20.25 C3.94 19.39, 2.34 16.04, 1.23 13.81 C0.11 11.57, -1.29 8.82, -0.77 6.83 C-0.25 4.84, 2.24 3.22, 4.35 1.87 C6.46 0.53, 10.73 -0.71, 11.9 -1.22 C13.08 -1.74, 11.51 -1.45, 11.39 -1.21" stroke="#000000" stroke-width="1" fill="none"></path></g><g stroke-linecap="round"><g transform="translate(667.4338473302078 480.38549152023415) rotate(0 94.94373431429233 -160.03988319242842)"><path d="M-0.78 0.14 C58.1 0.11, 111.17 -0.5, 188.53 -1.34 M0.14 -0.31 C46.08 -0.1, 91.27 0.22, 189.66 -0.6 M190.19 -0.14 C186.87 -89.62, 189.16 -178.8, 188.77 -319.8 M189.09 -0.39 C191.2 -80.53, 191.16 -160.3, 189.14 -320.22" stroke="#000000" stroke-width="1" fill="none"></path></g><g transform="translate(667.4338473302078 480.38549152023415) rotate(0 94.94373431429233 -160.03988319242842)"><path d="M198.91 -292 C198.16 -300.2, 191.79 -309.15, 188.12 -321.57 M199.82 -292.45 C197.63 -298.56, 194.58 -305, 189.24 -320.82" stroke="#000000" stroke-width="1" fill="none"></path></g><g transform="translate(667.4338473302078 480.38549152023415) rotate(0 94.94373431429233 -160.03988319242842)"><path d="M178.39 -291.78 C183.74 -300.07, 183.46 -309.08, 188.12 -321.57 M179.3 -292.24 C182.05 -298.44, 183.96 -304.94, 189.24 -320.82" stroke="#000000" stroke-width="1" fill="none"></path></g></g><mask></mask><g transform="translate(243.9533458030469 91.13345259626385) rotate(0 64.69166564941406 17.5)"><text x="64.69166564941406" y="0" font-family="Virgil, Segoe UI Emoji" font-size="28px" fill="#c92a2a" text-anchor="middle" style="white-space: pre;" direction="ltr" dominant-baseline="text-before-edge">ENCRYPT</text></g><g transform="translate(768.7783717294135 92.42460381897854) rotate(0 66.59166717529297 17.5)"><text x="66.59166717529297" y="0" font-family="Virgil, Segoe UI Emoji" font-size="28px" fill="#c92a2a" text-anchor="middle" style="white-space: pre;" direction="ltr" dominant-baseline="text-before-edge">DECRYPT</text></g><g transform="translate(474.4749490234192 404.95593544743133) rotate(0 87.49166870117188 17.5)"><text x="87.49166870117188" y="0" font-family="Virgil, Segoe UI Emoji" font-size="28px" fill="#0b7285" text-anchor="middle" style="white-space: pre;" direction="ltr" dominant-baseline="text-before-edge">SHARED KEY</text></g></svg>